PathFileType	4	(X/Y/Z)	 s02c0303.trc
DataRate	CameraRate	NumFrames	NumMarkers	Units	OrigDataRate	OrigDataStartFrame	OrigNumFrames
200	200	4	50	mm	200	1501	2000
Frame#	Time	racr			lacr			c7			jug			rlel			rdr			llel			ldr			s2			lic			ric			lasi			rasi			rpsi			lpsi			rgt			lgt			rth1			rth2			rth3			rth4			rlfc			rmfc			rsh1			rsh2			rsh3			rsh4			rlmal			rmmal			rtoe			rmt5			rmt1			lth1			lth2			lth4			lth3			llfc			lmfc			lsh1			lsh2			lsh3			lsh4			llmal			lmmal			lcal			ltoe			lmt5			SBIKE			LBIKE			RBIKE			
		X1	Y1	Z1	X2	Y2	Z2	X3	Y3	Z3	X4	Y4	Z4	X5	Y5	Z5	X6	Y6	Z6	X7	Y7	Z7	X8	Y8	Z8	X9	Y9	Z9	X10	Y10	Z10	X11	Y11	Z11	X12	Y12	Z12	X13	Y13	Z13	X14	Y14	Z14	X15	Y15	Z15	X16	Y16	Z16	X17	Y17	Z17	X18	Y18	Z18	X19	Y19	Z19	X20	Y20	Z20	X21	Y21	Z21	X22	Y22	Z22	X23	Y23	Z23	X24	Y24	Z24	X25	Y25	Z25	X26	Y26	Z26	X27	Y27	Z27	X28	Y28	Z28	X29	Y29	Z29	X30	Y30	Z30	X31	Y31	Z31	X32	Y32	Z32	X33	Y33	Z33	X34	Y34	Z34	X35	Y35	Z35	X36	Y36	Z36	X37	Y37	Z37	X38	Y38	Z38	X39	Y39	Z39	X40	Y40	Z40	X41	Y41	Z41	X42	Y42	Z42	X43	Y43	Z43	X44	Y44	Z44	X45	Y45	Z45	X46	Y46	Z46	X47	Y47	Z47	X48	Y48	Z48	X49	Y49	Z49	X50	Y50	Z50	
1501	7.5050	771.569327	1235.626843	-177.060175	692.422740	1274.218533	-511.398348	731.885653	1289.083266	-351.276713	653.839629	1166.913429	-335.000356	673.448048	1021.575848	-29.384964	735.362107	843.134269	-110.542823	552.887234	1019.269571	-568.335082	712.921147	868.063410	-510.438076	207.318219	1206.962992	-221.827800	292.863101	1206.298692	-387.239952	349.905928	1157.371738	-107.698170	338.882849	1163.401380	-380.163213	386.596733	1122.137697	-143.333567	236.680470	1229.534483	-180.965946	225.811060	1247.264297	-263.004373	301.056636	1069.831666	-73.946342	248.279013	1124.882818	-422.472480	356.011382	988.242200	-81.074029	407.243946	916.270666	-86.573447	419.427855	831.757479	-73.064095	435.574716	926.785990	-109.117665	432.995235	695.599888	-114.528249	419.132456	685.322863	-223.421946	373.639095	600.798662	-98.052808	335.420532	521.360949	-116.909031	266.830663	469.404317	-111.996346	345.800667	517.857190	-154.880193	179.366499	378.599874	-120.211097	201.208373	397.183285	-200.090199	245.440437	162.218143	-193.766069	177.088317	240.406006	-124.046940	200.246701	234.506537	-233.654246	358.617842	1047.831860	-462.167753	434.870975	1008.276613	-475.145779	459.795165	1030.943115	-457.737510	479.703258	932.649313	-489.861002	554.459227	855.834812	-486.235099	575.449034	821.629713	-381.178352	520.988849	756.654139	-503.941306	497.658450	674.783797	-486.564449	433.769411	611.261425	-485.743992	518.266897	667.425761	-452.351168	362.266379	526.099114	-467.083484	384.235497	518.898339	-391.750645	286.097615	487.675632	-427.780853	561.673314	403.871797	-444.768332	450.598844	409.396062	-502.402487	-126.121826	871.851339	-308.563803	37.148851	86.616030	-514.165479	33.830575	83.396449	-114.117235	
1502	7.5100	771.428650	1236.818489	-178.722178	691.487808	1272.863157	-512.526306	731.063688	1288.879950	-353.045567	653.771370	1166.366794	-335.773672	674.217816	1022.159472	-30.362403	735.378341	843.115296	-110.727659	551.290899	1018.231848	-568.373987	712.500774	868.036763	-510.665204	207.201621	1207.360662	-222.211237	292.416127	1203.955290	-386.689397	349.403161	1159.056139	-107.655240	338.511653	1160.771646	-379.011299	386.411107	1123.836239	-142.851531	236.050141	1231.421958	-181.494777	225.118216	1248.014523	-263.644387	302.323194	1071.496699	-72.668116	246.146849	1122.233450	-421.561804	358.972239	990.146007	-82.969946	411.813547	919.385810	-88.190361	426.120086	835.328738	-73.980031	439.923956	930.586152	-110.386152	441.430999	699.033613	-114.853110	426.137450	688.624225	-223.557468	379.744534	604.553441	-98.108562	339.004789	526.394232	-117.136237	268.920372	476.229377	-112.131423	348.692785	522.501207	-155.511878	177.893570	387.955517	-119.792483	201.620284	405.158999	-200.435964	239.925379	170.432861	-193.650120	172.940553	249.985060	-123.943449	196.077176	243.468233	-233.649114	355.098331	1043.446823	-462.337758	430.557304	1002.667412	-475.968007	456.078679	1025.150521	-459.297926	474.210328	926.199424	-490.064917	547.614080	848.089007	-486.578017	569.199220	814.200439	-382.976198	515.134740	747.561025	-504.286958	494.401664	665.099283	-486.340554	432.434037	599.754627	-484.688611	515.544007	658.640861	-452.306281	363.812465	514.110257	-465.624857	386.586083	506.983653	-390.155883	288.581480	474.514432	-426.422202	565.685821	395.309311	-444.960184	454.301976	399.685007	-502.587959	-126.060985	871.830597	-308.581642	37.156210	86.610425	-514.169275	33.519256	83.582858	-114.282479	
1503	7.5150	771.143337	1238.027232	-180.092878	690.894485	1271.316164	-513.554100	730.371691	1288.547212	-354.543924	653.820394	1165.708252	-336.302670	674.964680	1022.725396	-31.003256	735.427511	843.046749	-110.727248	550.308579	1017.101642	-568.704871	712.194781	867.961502	-510.862532	206.962399	1207.498688	-222.626884	293.659588	1201.119115	-386.926551	349.018590	1160.486840	-107.693970	338.195555	1157.906453	-377.959344	386.301672	1125.477106	-142.757168	235.447989	1233.030908	-182.169769	226.197461	1247.273948	-264.735740	303.873004	1072.921109	-71.518790	244.063402	1119.167475	-420.659167	362.144055	992.096902	-84.073901	416.260751	922.292461	-89.703135	432.586101	838.843832	-75.211350	444.144449	934.180839	-111.925506	449.762667	702.359653	-115.123785	432.875977	691.817106	-223.733592	385.785411	608.418705	-98.485526	342.430047	531.221304	-117.630350	271.163900	483.162775	-112.040546	351.995373	527.475223	-155.844728	177.112073	397.542135	-119.364851	201.755594	414.362532	-199.892712	235.107082	179.009549	-193.464056	169.629686	259.576687	-123.736008	192.592745	252.696558	-233.494704	351.468548	1038.807372	-462.387741	426.187177	996.761964	-476.700198	452.239794	1019.163356	-460.831925	468.538040	919.538650	-490.360344	540.302843	840.269129	-486.880418	563.971328	806.658489	-383.794081	509.254647	738.619258	-504.528206	491.043977	655.565125	-486.344695	430.901677	588.537684	-483.969824	512.721394	649.790400	-452.538446	365.087365	502.286477	-464.450314	388.581388	495.300782	-389.048585	291.146175	461.669029	-424.845621	569.102742	386.259221	-445.686562	457.237524	389.635789	-502.527201	-126.000684	871.840593	-308.525736	37.157521	86.624028	-514.167907	33.529850	83.576211	-114.266680	
1504	7.5200	770.726457	1238.968473	-181.156305	690.729471	1269.456381	-514.084747	729.789430	1288.087873	-355.730268	654.050885	1164.854546	-336.759986	675.919252	1023.220200	-31.522487	735.508506	842.930252	-110.620001	549.602214	1015.888896	-569.330110	711.917590	867.873201	-511.128602	206.496914	1207.535822	-223.053794	293.765153	1198.382274	-386.779452	348.700028	1161.677337	-107.826080	337.916905	1154.859945	-377.051265	386.260962	1126.806023	-142.938980	234.827312	1234.118296	-182.839187	226.032375	1247.377447	-265.843573	305.439591	1074.011921	-70.661822	241.933373	1115.958350	-419.773295	365.332629	993.919114	-84.963919	420.925821	925.396190	-90.721553	439.242441	842.282419	-76.612841	448.408051	937.892332	-113.547363	457.902502	705.491891	-115.539579	439.355529	694.927675	-223.874406	391.480457	612.270170	-98.986478	345.314052	535.868912	-118.783217	273.831725	490.218636	-111.940860	355.467293	532.359993	-156.092648	177.114749	407.090523	-118.910987	202.381623	423.536239	-199.603699	230.912909	187.579728	-193.373383	166.865092	269.458540	-123.600828	189.929697	262.067517	-233.400771	347.907145	1034.059418	-462.531456	421.772051	990.684981	-477.300465	448.364732	1012.976363	-462.239480	462.861649	912.688319	-490.426915	533.113472	831.684508	-486.670317	558.424665	799.180635	-385.354196	503.267450	729.881628	-504.777940	487.483520	646.327520	-486.609257	429.128453	577.724965	-483.456619	509.795915	640.963291	-453.112185	366.178917	490.636377	-463.700138	390.284654	483.967159	-388.417019	293.399876	449.091985	-423.266993	571.992035	376.631550	-446.441454	459.682404	379.006250	-502.470464	-125.970089	871.865485	-308.434722	37.169747	86.640294	-514.165942	33.529444	83.591983	-114.252140	
